<?xml version="1.0" encoding="UTF-8" standalone="no"?>
<!DOCTYPE svg PUBLIC "-//W3C//DTD SVG 1.1//EN" "http://www.w3.org/Graphics/SVG/1.1/DTD/svg11.dtd">
<svg width="100%" height="100%" viewBox="0 0 800 236" version="1.1" xmlns="http://www.w3.org/2000/svg" xmlns:xlink="http://www.w3.org/1999/xlink" xml:space="preserve" xmlns:serif="http://www.serif.com/" style="fill-rule:evenodd;clip-rule:evenodd;stroke-linejoin:round;stroke-miterlimit:2;">
    <g transform="matrix(0.150827,0,0,0.150827,185.701,-186.561)">
        <g transform="matrix(805.411,0,0,805.411,570.082,2229.32)">
            <path d="M0.064,-0L0.04,-0.754L0.342,-0.754C0.447,-0.753 0.538,-0.717 0.613,-0.644C0.688,-0.571 0.725,-0.482 0.725,-0.376C0.725,-0.27 0.687,-0.181 0.612,-0.109C0.537,-0.036 0.447,-0 0.342,-0L0.064,-0ZM0.26,-0.588L0.26,-0.166L0.304,-0.166C0.363,-0.165 0.413,-0.182 0.457,-0.216C0.5,-0.249 0.521,-0.303 0.521,-0.377C0.521,-0.444 0.501,-0.496 0.461,-0.533C0.421,-0.57 0.369,-0.588 0.306,-0.588L0.26,-0.588Z" style="fill-rule:nonzero;"/>
        </g>
        <g transform="matrix(805.411,0,0,805.411,1146.66,2229.32)">
            <path d="M0.587,-0.245L0.587,-0.226L0.204,-0.226C0.204,-0.189 0.214,-0.16 0.233,-0.141C0.252,-0.121 0.281,-0.111 0.318,-0.111C0.337,-0.111 0.354,-0.115 0.369,-0.122C0.383,-0.129 0.395,-0.141 0.405,-0.158L0.58,-0.158C0.565,-0.097 0.533,-0.053 0.483,-0.025C0.432,0.003 0.378,0.017 0.319,0.017C0.234,0.017 0.164,-0.006 0.107,-0.053C0.05,-0.099 0.022,-0.166 0.022,-0.255C0.022,-0.34 0.049,-0.407 0.102,-0.456C0.155,-0.505 0.223,-0.529 0.306,-0.529C0.395,-0.529 0.465,-0.503 0.514,-0.452C0.563,-0.401 0.587,-0.331 0.587,-0.244L0.587,-0.245ZM0.207,-0.331L0.418,-0.331C0.413,-0.355 0.401,-0.374 0.382,-0.389C0.362,-0.404 0.34,-0.411 0.315,-0.411C0.288,-0.411 0.265,-0.404 0.245,-0.391C0.225,-0.377 0.212,-0.357 0.207,-0.331Z" style="fill-rule:nonzero;"/>
        </g>
        <g transform="matrix(805.411,0,0,805.411,1594.32,2229.32)">
            <path d="M0.497,-0.588L0.26,-0.588L0.26,-0.462L0.475,-0.462L0.475,-0.296L0.26,-0.296L0.26,-0L0.064,-0L0.041,-0.754L0.497,-0.754L0.497,-0.588Z" style="fill-rule:nonzero;"/>
        </g>
        <g transform="matrix(805.411,0,0,805.411,1983.79,2229.32)">
            <path d="M0.645,-0.513L0.621,-0L0.439,-0L0.439,-0.057L0.437,-0.057C0.422,-0.033 0.402,-0.015 0.377,-0.004C0.352,0.008 0.325,0.015 0.298,0.016C0.295,0.017 0.293,0.017 0.29,0.017L0.282,0.017C0.206,0.017 0.144,-0.01 0.096,-0.065C0.047,-0.119 0.023,-0.183 0.023,-0.256C0.023,-0.329 0.047,-0.393 0.095,-0.448C0.142,-0.502 0.204,-0.529 0.28,-0.529L0.29,-0.529C0.293,-0.529 0.297,-0.529 0.3,-0.528C0.326,-0.526 0.352,-0.52 0.377,-0.508C0.402,-0.498 0.422,-0.482 0.439,-0.462L0.439,-0.513L0.645,-0.513ZM0.328,-0.372C0.291,-0.371 0.263,-0.36 0.242,-0.337C0.221,-0.314 0.211,-0.286 0.211,-0.255C0.211,-0.222 0.221,-0.195 0.242,-0.173C0.263,-0.151 0.291,-0.14 0.328,-0.14C0.365,-0.14 0.394,-0.151 0.414,-0.173C0.435,-0.195 0.445,-0.223 0.445,-0.256C0.445,-0.287 0.435,-0.314 0.414,-0.337C0.394,-0.36 0.365,-0.372 0.328,-0.372Z" style="fill-rule:nonzero;"/>
        </g>
        <g transform="matrix(805.411,0,0,805.411,2507.42,2229.32)">
            <path d="M0.645,-0.513L0.621,-0L0.439,-0L0.439,-0.057L0.437,-0.057C0.422,-0.033 0.402,-0.015 0.377,-0.004C0.352,0.008 0.325,0.015 0.298,0.016C0.295,0.017 0.293,0.017 0.29,0.017L0.282,0.017C0.206,0.017 0.144,-0.01 0.096,-0.065C0.047,-0.119 0.023,-0.183 0.023,-0.256C0.023,-0.329 0.047,-0.393 0.095,-0.448C0.142,-0.502 0.204,-0.529 0.28,-0.529L0.29,-0.529C0.293,-0.529 0.297,-0.529 0.3,-0.528C0.326,-0.526 0.352,-0.52 0.377,-0.508C0.402,-0.498 0.422,-0.482 0.439,-0.462L0.439,-0.513L0.645,-0.513ZM0.328,-0.372C0.291,-0.371 0.263,-0.36 0.242,-0.337C0.221,-0.314 0.211,-0.286 0.211,-0.255C0.211,-0.222 0.221,-0.195 0.242,-0.173C0.263,-0.151 0.291,-0.14 0.328,-0.14C0.365,-0.14 0.394,-0.151 0.414,-0.173C0.435,-0.195 0.445,-0.223 0.445,-0.256C0.445,-0.287 0.435,-0.314 0.414,-0.337C0.394,-0.36 0.365,-0.372 0.328,-0.372Z" style="fill-rule:nonzero;"/>
        </g>
        <g transform="matrix(805.411,0,0,805.411,3027.62,2229.32)">
            <path d="M0.242,-0.513L0.242,-0.447L0.244,-0.447C0.265,-0.478 0.289,-0.499 0.316,-0.511C0.342,-0.523 0.373,-0.529 0.408,-0.529C0.477,-0.529 0.527,-0.509 0.557,-0.47C0.586,-0.431 0.601,-0.379 0.601,-0.316L0.601,-0L0.419,-0L0.419,-0.28C0.419,-0.287 0.419,-0.293 0.418,-0.3C0.417,-0.321 0.411,-0.34 0.4,-0.358C0.389,-0.375 0.368,-0.384 0.337,-0.384C0.3,-0.384 0.275,-0.372 0.262,-0.348C0.249,-0.325 0.242,-0.297 0.242,-0.265L0.242,-0L0.06,-0L0.035,-0.513L0.242,-0.513Z" style="fill-rule:nonzero;"/>
        </g>
        <g transform="matrix(805.411,0,0,805.411,3516.36,2229.32)">
            <path d="M0.646,-0.513L0.623,-0.05C0.623,0.059 0.597,0.138 0.546,0.185C0.494,0.232 0.421,0.256 0.326,0.256C0.313,0.256 0.3,0.255 0.286,0.254C0.272,0.253 0.258,0.25 0.244,0.247C0.195,0.236 0.149,0.216 0.107,0.185C0.064,0.154 0.04,0.113 0.034,0.06L0.238,0.06C0.241,0.069 0.245,0.077 0.251,0.083C0.257,0.09 0.264,0.095 0.272,0.099C0.277,0.102 0.282,0.104 0.287,0.105C0.292,0.107 0.298,0.108 0.303,0.109C0.306,0.11 0.31,0.11 0.314,0.11C0.317,0.111 0.321,0.111 0.324,0.111C0.373,0.111 0.405,0.097 0.42,0.068C0.434,0.04 0.441,0.006 0.441,-0.035L0.441,-0.06C0.418,-0.036 0.393,-0.018 0.368,-0.007C0.342,0.004 0.312,0.01 0.278,0.01C0.203,0.01 0.142,-0.015 0.096,-0.065C0.049,-0.115 0.025,-0.177 0.025,-0.251C0.025,-0.326 0.049,-0.392 0.098,-0.447C0.146,-0.501 0.209,-0.529 0.288,-0.529C0.318,-0.529 0.346,-0.524 0.373,-0.513C0.399,-0.501 0.421,-0.483 0.439,-0.458L0.441,-0.459L0.441,-0.513L0.646,-0.513ZM0.33,-0.376C0.293,-0.375 0.265,-0.364 0.244,-0.341C0.223,-0.318 0.213,-0.29 0.213,-0.259C0.213,-0.226 0.223,-0.199 0.244,-0.177C0.265,-0.155 0.293,-0.144 0.33,-0.144C0.367,-0.144 0.396,-0.155 0.417,-0.177C0.437,-0.199 0.447,-0.227 0.447,-0.26C0.447,-0.291 0.437,-0.318 0.417,-0.341C0.396,-0.364 0.367,-0.376 0.33,-0.376Z" style="fill-rule:nonzero;"/>
        </g>
    </g>
    <g transform="matrix(0.17766,0,0,0.17766,-1.37955,-15.6908)">
        <path d="M115.853,807.296C113.607,785.451 112.456,763.285 112.456,740.852C112.456,385.903 400.629,97.73 755.577,97.73C1105.98,97.73 1391.31,378.573 1398.56,727.214L1451.1,723.935C1458.99,723.442 1466.7,726.431 1472.19,732.112C1477.69,737.794 1480.42,745.597 1479.66,753.465C1445.94,1090.61 1157.26,1365.42 790.09,1388.33C422.922,1411.25 102.308,1174.47 26.963,844.127C25.236,836.424 26.972,828.351 31.712,822.038C36.452,815.725 43.72,811.805 51.599,811.313C67.566,810.314 89.31,808.955 115.853,807.296Z" style="fill:rgb(37,99,235);"/>
    </g>
    <g transform="matrix(0.17766,0,0,0.17766,-1.37955,-15.6908)">
        <path d="M896.466,758.554L678.866,772.138C647.408,921.202 728.268,1044.62 728.268,1044.62C594.398,975.311 539.818,871.764 519.425,782.092C414.5,788.643 316.67,794.752 235.94,799.794C233.764,780.422 232.648,760.766 232.648,740.852C232.648,452.239 466.965,217.923 755.577,217.923C1042.14,217.923 1275.18,448.924 1278.47,734.709L1137.65,743.499C1116.06,882.04 1042.75,1051.65 832.979,1165.43C832.979,1165.43 950.136,978.874 896.466,758.554ZM740.657,541.205L743.413,586.12C744.231,599.456 744.331,610.847 743.712,620.294C743.093,629.74 740.989,639.151 737.401,648.527C733.813,657.903 728.067,667.064 720.162,676.01C703.291,695.105 679.143,705.616 647.72,707.544C647.72,707.544 602.886,710.295 572.666,712.15C557.783,713.063 544.977,701.738 544.063,686.854C539.812,617.571 528.833,438.651 528.833,438.651L630.836,432.392C662.259,430.463 687.511,437.943 706.59,454.832C715.529,462.744 722.352,471.134 727.06,480.001C731.768,488.868 735.006,497.951 736.775,507.251C738.545,516.551 739.839,527.869 740.657,541.205ZM969.456,444.99C969.895,452.138 967.476,459.167 962.732,464.531C957.989,469.895 951.308,473.155 944.161,473.593C908.928,475.755 851.651,479.27 851.651,479.27L854.615,527.582L956.713,521.317C956.713,521.317 957.77,538.545 958.753,554.569C959.192,561.717 956.773,568.745 952.029,574.11C947.285,579.474 940.605,582.734 933.457,583.172C903.209,585.028 858.31,587.783 858.31,587.783C858.31,587.783 861.252,635.739 863.187,667.272C863.626,674.419 861.207,681.448 856.463,686.812C851.719,692.176 845.039,695.436 837.892,695.875C819.063,697.03 797.279,698.367 797.279,698.367C797.279,698.367 786.3,519.446 782.049,450.164C781.61,443.016 784.029,435.987 788.773,430.623C793.517,425.259 800.197,421.999 807.345,421.561C859.119,418.384 967.416,411.738 967.416,411.738C967.416,411.738 968.473,428.966 969.456,444.99ZM674.474,567.808C673.084,545.162 671.694,530.251 670.304,523.075C668.913,515.898 666.64,510.323 663.483,506.35C655.913,496.459 644.747,491.966 629.986,492.872L600.088,494.706L609.584,649.456L639.481,647.622C654.243,646.716 664.776,640.892 671.08,630.149C673.024,626.747 674.308,623.416 674.932,620.157C675.556,616.899 675.88,611.354 675.906,603.522C675.932,595.691 675.454,583.786 674.474,567.808ZM640.435,366.309C635.011,358.965 631.53,350.048 630.818,340.273C628.812,312.73 649.544,288.741 677.086,286.734C704.629,284.728 728.619,305.46 730.625,333.003C731.337,342.777 729.185,352.105 724.882,360.158L640.435,366.309ZM773.985,357.319C768.549,349.983 765.055,341.071 764.328,331.298C762.28,303.758 782.975,279.737 810.515,277.689C838.054,275.64 862.075,296.336 864.124,323.875C864.85,333.649 862.713,342.98 858.422,351.039L773.985,357.319Z" style="fill:white;"/>
    </g>
</svg>
