<?xml version="1.0" encoding="UTF-8" standalone="no"?>
<!DOCTYPE svg PUBLIC "-//W3C//DTD SVG 1.1//EN" "http://www.w3.org/Graphics/SVG/1.1/DTD/svg11.dtd">
<svg width="100%" height="100%" viewBox="0 0 1500 1500" version="1.1" xmlns="http://www.w3.org/2000/svg" xmlns:xlink="http://www.w3.org/1999/xlink" xml:space="preserve" xmlns:serif="http://www.serif.com/" style="fill-rule:evenodd;clip-rule:evenodd;stroke-linejoin:round;stroke-miterlimit:2;">
    <g transform="matrix(1.09977,0,0,1.09977,500.594,312.217)">
        <circle cx="234.015" cy="387.359" r="530.048" style="fill:rgb(0,34,75);"/>
    </g>
    <path d="M755.577,165.714C1073,165.714 1330.71,423.424 1330.71,740.852C1330.71,1058.28 1073,1315.99 755.577,1315.99C438.15,1315.99 180.439,1058.28 180.439,740.852C180.439,423.424 438.15,165.714 755.577,165.714ZM740.657,541.205L743.413,586.12C744.231,599.456 744.331,610.847 743.712,620.294C743.093,629.74 740.989,639.151 737.401,648.527C733.813,657.903 728.067,667.064 720.162,676.01C703.291,695.105 679.143,705.616 647.72,707.544C647.72,707.544 602.886,710.295 572.666,712.15C557.783,713.063 544.977,701.738 544.063,686.854C539.812,617.571 528.833,438.651 528.833,438.651L630.836,432.392C662.259,430.463 687.511,437.943 706.59,454.832C715.529,462.744 722.352,471.134 727.06,480.001C731.768,488.868 735.006,497.951 736.775,507.251C738.545,516.551 739.839,527.869 740.657,541.205ZM969.456,444.99C969.895,452.138 967.476,459.167 962.732,464.531C957.989,469.895 951.308,473.155 944.161,473.593C908.928,475.755 851.651,479.27 851.651,479.27L854.615,527.582L956.713,521.317C956.713,521.317 957.77,538.545 958.753,554.569C959.192,561.717 956.773,568.745 952.029,574.11C947.285,579.474 940.605,582.734 933.457,583.172C903.209,585.028 858.31,587.783 858.31,587.783C858.31,587.783 861.252,635.739 863.187,667.272C863.626,674.419 861.207,681.448 856.463,686.812C851.719,692.176 845.039,695.436 837.892,695.875C819.063,697.03 797.279,698.367 797.279,698.367C797.279,698.367 786.3,519.446 782.049,450.164C781.61,443.016 784.029,435.987 788.773,430.623C793.517,425.259 800.197,421.999 807.345,421.561C859.119,418.384 967.416,411.738 967.416,411.738C967.416,411.738 968.473,428.966 969.456,444.99ZM674.474,567.808C673.084,545.162 671.694,530.251 670.304,523.075C668.913,515.898 666.64,510.323 663.483,506.35C655.913,496.459 644.747,491.966 629.986,492.872L600.088,494.706L609.584,649.456L639.481,647.622C654.243,646.716 664.776,640.892 671.08,630.149C673.024,626.747 674.308,623.416 674.932,620.157C675.556,616.899 675.88,611.354 675.906,603.522C675.932,595.691 675.454,583.786 674.474,567.808ZM640.435,356.309C635.011,348.965 631.53,340.048 630.818,330.273C628.812,302.73 649.544,278.741 677.086,276.734C704.629,274.728 728.619,295.46 730.625,323.003C731.337,332.777 729.185,342.105 724.882,350.158L640.435,356.309ZM773.985,347.319C768.549,339.983 765.055,331.071 764.328,321.298C762.28,293.758 782.975,269.737 810.515,267.689C838.054,265.64 862.075,286.336 864.124,313.875C864.85,323.649 862.713,332.98 858.422,341.039L773.985,347.319Z" style="fill:white;"/>
    <path d="M115.853,807.296C113.607,785.451 112.456,763.285 112.456,740.852C112.456,385.903 400.629,97.73 755.577,97.73C1105.98,97.73 1391.31,378.573 1398.56,727.214L1451.1,723.935C1458.99,723.442 1466.7,726.431 1472.19,732.112C1477.69,737.794 1480.42,745.597 1479.66,753.465C1445.94,1090.61 1157.26,1365.42 790.09,1388.33C422.922,1411.25 102.308,1174.47 26.963,844.127C25.236,836.424 26.972,828.351 31.712,822.038C36.452,815.725 43.72,811.805 51.599,811.313C67.566,810.314 89.309,808.955 115.853,807.296ZM1330.64,731.453L1175.52,741.135C1163.03,838.497 1114.26,964.458 959.432,1044.62C959.432,1044.62 1047.73,909.849 1003.88,751.849C841.13,762.008 659.273,773.36 496.672,783.512C471.502,927.45 548.268,1044.62 548.268,1044.62C419.872,978.145 364.413,880.174 342.103,793.163L183.77,803.053C181.568,782.617 180.439,761.866 180.439,740.852C180.439,423.424 438.15,165.714 755.577,165.714C1069.86,165.714 1325.61,418.347 1330.64,731.453Z" style="fill:rgb(0,34,75);"/>
</svg>
