<?xml version="1.0" encoding="UTF-8" standalone="no"?>
<!DOCTYPE svg PUBLIC "-//W3C//DTD SVG 1.1//EN" "http://www.w3.org/Graphics/SVG/1.1/DTD/svg11.dtd">
<svg width="100%" height="100%" viewBox="0 0 1800 1800" version="1.1" xmlns="http://www.w3.org/2000/svg" xmlns:xlink="http://www.w3.org/1999/xlink" xml:space="preserve" xmlns:serif="http://www.serif.com/" style="fill-rule:evenodd;clip-rule:evenodd;stroke-linejoin:round;stroke-miterlimit:2;">
    <g transform="matrix(5.44683,0,0,5.56697,-3121.4,-2750.65)">
        <path d="M704.183,643.269L704.183,609.569L711.833,609.569L711.833,630.869L719.733,621.319L729.383,621.319L719.533,631.819L730.283,643.269L720.083,643.269L711.833,633.469L711.833,643.269L704.183,643.269Z" style="fill:white;fill-rule:nonzero;stroke:white;stroke-width:4.46px;"/>
        <path d="M734.333,643.269L734.333,621.319L742.133,621.319L742.133,643.269L734.333,643.269ZM733.883,614.519C733.883,613.386 734.324,612.361 735.208,611.444C736.091,610.528 737.049,610.036 738.083,609.969L738.233,609.969C739.333,609.969 740.316,610.436 741.183,611.369C742.049,612.303 742.483,613.353 742.483,614.519C742.483,615.786 742.066,616.769 741.233,617.469C740.399,618.169 739.466,618.553 738.433,618.619L737.933,618.619C736.899,618.553 735.966,618.169 735.133,617.469C734.299,616.769 733.883,615.786 733.883,614.519Z" style="fill:white;fill-rule:nonzero;stroke:white;stroke-width:4.46px;"/>
        <path d="M776.033,643.269L776.033,630.769C775.999,629.636 775.791,628.603 775.408,627.669C775.024,626.736 774.199,626.269 772.933,626.269L772.433,626.269C771.199,626.403 770.349,626.944 769.883,627.894C769.416,628.844 769.133,629.869 769.033,630.969C768.999,631.203 768.983,631.444 768.983,631.694L768.983,632.819C768.983,632.953 768.999,633.069 769.033,633.169L769.033,643.269L761.483,643.269L761.483,630.769C761.449,629.636 761.266,628.603 760.933,627.669C760.599,626.736 759.766,626.269 758.433,626.269L757.933,626.269C756.599,626.403 755.699,626.961 755.233,627.944C754.766,628.928 754.499,629.986 754.433,631.119C754.399,631.386 754.383,631.653 754.383,631.919L754.383,632.994C754.383,633.111 754.399,633.219 754.433,633.319L754.433,643.269L746.983,643.269L746.983,621.319L754.633,621.319L754.633,625.119C755.499,623.686 756.499,622.569 757.633,621.769C758.766,620.969 760.216,620.569 761.983,620.569L762.233,620.569C763.799,620.569 765.124,620.903 766.208,621.569C767.291,622.236 768.149,623.286 768.783,624.719C769.683,623.453 770.791,622.444 772.108,621.694C773.424,620.944 774.833,620.569 776.333,620.569C776.633,620.569 776.933,620.586 777.233,620.619C777.533,620.653 777.849,620.686 778.183,620.719C778.416,620.786 778.649,620.853 778.883,620.919C779.116,620.986 779.349,621.069 779.583,621.169C781.649,622.036 782.858,623.353 783.208,625.119C783.558,626.886 783.733,628.753 783.733,630.719L783.733,643.269L776.033,643.269Z" style="fill:white;fill-rule:nonzero;stroke:white;stroke-width:4.46px;"/>
        <path d="M789.083,609.569L796.433,609.569L796.433,620.969C796.433,621.669 796.424,622.344 796.408,622.994C796.391,623.644 796.349,624.303 796.283,624.969C797.216,623.503 798.233,622.394 799.333,621.644C800.433,620.894 801.899,620.519 803.733,620.519C806.799,620.586 809.174,621.628 810.858,623.644C812.541,625.661 813.466,628.103 813.633,630.969L813.633,632.969C813.566,635.503 812.899,637.844 811.633,639.994C810.366,642.144 808.383,643.403 805.683,643.769C805.316,643.836 804.958,643.886 804.608,643.919C804.258,643.953 803.916,643.969 803.583,643.969C802.049,643.969 800.674,643.594 799.458,642.844C798.241,642.094 797.149,641.053 796.183,639.719L796.183,643.269L789.083,643.269L789.083,609.569ZM800.983,637.269C802.449,637.269 803.666,636.736 804.633,635.669C805.599,634.603 806.083,633.386 806.083,632.019L806.083,631.719C806.016,630.486 805.558,629.344 804.708,628.294C803.858,627.244 802.616,626.719 800.983,626.719C799.416,626.719 798.216,627.244 797.383,628.294C796.549,629.344 796.099,630.486 796.033,631.719L796.033,632.169C796.066,633.436 796.499,634.603 797.333,635.669C798.166,636.736 799.383,637.269 800.983,637.269Z" style="fill:white;fill-rule:nonzero;stroke:white;stroke-width:4.46px;"/>
        <path d="M842.083,621.319L842.083,643.169L834.933,643.169L834.933,639.719C833.899,641.119 832.766,642.178 831.533,642.894C830.299,643.611 828.866,643.969 827.233,643.969C826.966,643.969 826.674,643.969 826.358,643.969C826.041,643.969 825.716,643.936 825.383,643.869C822.883,643.503 821.008,642.344 819.758,640.394C818.508,638.444 817.766,636.319 817.533,634.019C817.499,633.719 817.474,633.428 817.458,633.144C817.441,632.861 817.433,632.586 817.433,632.319L817.433,631.994C817.433,631.878 817.449,631.753 817.483,631.619C817.483,631.419 817.499,631.203 817.533,630.969C817.566,630.736 817.583,630.503 817.583,630.269C817.616,630.169 817.641,630.069 817.658,629.969C817.674,629.869 817.683,629.769 817.683,629.669C818.049,627.003 819.108,624.819 820.858,623.119C822.608,621.419 824.849,620.569 827.583,620.569C829.283,620.569 830.708,620.944 831.858,621.694C833.008,622.444 834.033,623.503 834.933,624.869L834.933,621.319L842.083,621.319ZM825.133,632.019C825.199,633.353 825.641,634.561 826.458,635.644C827.274,636.728 828.499,637.269 830.133,637.269C831.766,637.269 832.999,636.728 833.833,635.644C834.666,634.561 835.083,633.369 835.083,632.069L835.083,631.669C834.983,630.436 834.516,629.303 833.683,628.269C832.849,627.236 831.666,626.719 830.133,626.719C828.533,626.719 827.316,627.244 826.483,628.294C825.649,629.344 825.199,630.486 825.133,631.719L825.133,632.019Z" style="fill:white;fill-rule:nonzero;stroke:white;stroke-width:4.46px;"/>
        <path d="M847.583,652.919L847.583,621.319L854.683,621.319L854.683,624.969C855.649,623.603 856.808,622.528 858.158,621.744C859.508,620.961 860.949,620.569 862.483,620.569C862.816,620.569 863.166,620.594 863.533,620.644C863.899,620.694 864.266,620.753 864.633,620.819C864.866,620.886 865.099,620.953 865.333,621.019C865.566,621.086 865.783,621.153 865.983,621.219C868.083,622.053 869.641,623.494 870.658,625.544C871.674,627.594 872.183,629.753 872.183,632.019L872.183,632.569C872.083,635.436 871.183,638.053 869.483,640.419C867.783,642.786 865.399,643.969 862.333,643.969L862.083,644.019C860.316,643.986 858.883,643.611 857.783,642.894C856.683,642.178 855.683,641.119 854.783,639.719C854.816,640.053 854.841,640.378 854.858,640.694C854.874,641.011 854.899,641.319 854.933,641.619L854.933,652.919L847.583,652.919ZM859.483,637.769C860.816,637.769 861.999,637.194 863.033,636.044C864.066,634.894 864.583,633.603 864.583,632.169C864.583,630.736 864.124,629.461 863.208,628.344C862.291,627.228 861.049,626.669 859.483,626.669C857.849,626.669 856.616,627.244 855.783,628.394C854.949,629.544 854.533,630.803 854.533,632.169L854.533,632.469C854.599,633.769 855.049,634.978 855.883,636.094C856.716,637.211 857.916,637.769 859.483,637.769Z" style="fill:white;fill-rule:nonzero;stroke:white;stroke-width:4.46px;"/>
    </g>
    <g transform="matrix(5.44683,0,0,5.56697,-3116.4,-2484.59)">
        <path d="M703.533,641.419L705.183,635.469C706.149,636.303 707.183,636.961 708.283,637.444C709.383,637.928 710.566,638.269 711.833,638.469C711.866,638.469 711.908,638.478 711.958,638.494C712.008,638.511 712.083,638.519 712.183,638.519C712.249,638.519 712.316,638.528 712.383,638.544C712.449,638.561 712.533,638.569 712.633,638.569C712.799,638.569 712.983,638.561 713.183,638.544C713.383,638.528 713.566,638.503 713.733,638.469C714.333,638.369 714.866,638.186 715.333,637.919C715.799,637.653 716.033,637.303 716.033,636.869C716.033,636.769 716.016,636.653 715.983,636.519C715.949,636.386 715.916,636.236 715.883,636.069C715.849,636.003 715.816,635.944 715.783,635.894C715.749,635.844 715.716,635.786 715.683,635.719C715.449,635.353 715.058,635.078 714.508,634.894C713.958,634.711 713.383,634.553 712.783,634.419C712.583,634.386 712.374,634.344 712.158,634.294C711.941,634.244 711.716,634.203 711.483,634.169C711.316,634.136 711.149,634.103 710.983,634.069C710.816,634.036 710.666,634.003 710.533,633.969C709.266,633.536 708.074,632.944 706.958,632.194C705.841,631.444 705.133,630.386 704.833,629.019C704.833,628.953 704.824,628.886 704.808,628.819C704.791,628.753 704.783,628.669 704.783,628.569C704.783,628.536 704.774,628.503 704.758,628.469C704.741,628.436 704.733,628.403 704.733,628.369C704.733,628.269 704.724,628.161 704.708,628.044C704.691,627.928 704.683,627.819 704.683,627.719L704.683,627.419C704.683,627.319 704.699,627.219 704.733,627.119C704.799,626.186 705.066,625.286 705.533,624.419C705.999,623.553 706.599,622.836 707.333,622.269C708.033,621.769 708.816,621.386 709.683,621.119C710.549,620.853 711.433,620.686 712.333,620.619C712.466,620.586 712.616,620.569 712.783,620.569L713.283,620.569C713.616,620.569 713.958,620.578 714.308,620.594C714.658,620.611 715.016,620.653 715.383,620.719C716.616,620.853 717.841,621.103 719.058,621.469C720.274,621.836 721.366,622.219 722.333,622.619L720.733,627.969C719.799,627.336 718.816,626.811 717.783,626.394C716.749,625.978 715.616,625.769 714.383,625.769L713.958,625.769C713.808,625.769 713.649,625.786 713.483,625.819C713.083,625.886 712.716,626.011 712.383,626.194C712.049,626.378 711.833,626.686 711.733,627.119L711.633,627.369L711.633,627.519C711.666,627.819 711.791,628.086 712.008,628.319C712.224,628.553 712.483,628.703 712.783,628.769C713.183,628.903 713.574,629.036 713.958,629.169C714.341,629.303 714.733,629.419 715.133,629.519C715.233,629.553 715.341,629.586 715.458,629.619C715.574,629.653 715.683,629.686 715.783,629.719C716.216,629.819 716.641,629.928 717.058,630.044C717.474,630.161 717.883,630.303 718.283,630.469C719.716,631.003 720.816,631.786 721.583,632.819C722.349,633.853 722.799,634.936 722.933,636.069C722.966,636.203 722.983,636.328 722.983,636.444L722.983,637.144C722.983,637.261 722.966,637.386 722.933,637.519C722.833,638.353 722.558,639.178 722.108,639.994C721.658,640.811 721.033,641.519 720.233,642.119C719.366,642.786 718.391,643.261 717.308,643.544C716.224,643.828 715.116,643.986 713.983,644.019L713.433,644.019C713.133,644.019 712.841,644.011 712.558,643.994C712.274,643.978 711.983,643.953 711.683,643.919C710.216,643.753 708.774,643.444 707.358,642.994C705.941,642.544 704.666,642.019 703.533,641.419Z" style="fill:white;fill-rule:nonzero;stroke:white;stroke-width:4.46px;"/>
        <path d="M727.433,643.269L727.433,609.569L735.083,609.569L735.083,621.319C735.083,621.853 735.058,622.378 735.008,622.894C734.958,623.411 734.899,623.936 734.833,624.469C734.799,624.636 734.774,624.786 734.758,624.919C734.741,625.053 734.733,625.186 734.733,625.319C735.766,623.753 736.916,622.561 738.183,621.744C739.449,620.928 740.983,620.519 742.783,620.519L744.133,620.519C745.266,620.653 746.349,620.996 747.383,621.547C748.416,622.098 749.249,622.874 749.883,623.876C750.349,624.712 750.649,625.597 750.783,626.532C750.916,627.468 750.999,628.42 751.033,629.389L751.033,643.269L743.233,643.269L743.233,630.719C743.233,630.453 743.216,630.169 743.183,629.869C743.116,629.269 742.966,628.686 742.733,628.119C742.499,627.553 742.099,627.119 741.533,626.819C741.399,626.753 741.241,626.694 741.058,626.644C740.874,626.594 740.683,626.569 740.483,626.569C740.349,626.536 740.216,626.519 740.083,626.519L739.283,626.519C739.116,626.519 738.941,626.536 738.758,626.569C738.574,626.603 738.399,626.636 738.233,626.669C737.033,627.069 736.233,627.769 735.833,628.769C735.433,629.769 735.199,630.819 735.133,631.919C735.099,632.286 735.083,632.644 735.083,632.994L735.083,643.269L727.433,643.269Z" style="fill:white;fill-rule:nonzero;stroke:white;stroke-width:4.46px;"/>
        <path d="M779.533,636.769C778.599,638.936 777.124,640.644 775.108,641.894C773.091,643.144 770.966,643.836 768.733,643.969L768.033,643.969C767.699,643.969 767.358,643.953 767.008,643.919C766.658,643.886 766.316,643.836 765.983,643.769C765.349,643.669 764.733,643.536 764.133,643.369C763.533,643.203 762.966,642.986 762.433,642.719C760.466,641.686 758.899,640.211 757.733,638.294C756.566,636.378 755.983,634.369 755.983,632.269C755.983,631.903 755.999,631.519 756.033,631.119C756.066,630.719 756.133,630.319 756.233,629.919C756.333,629.386 756.483,628.844 756.683,628.294C756.883,627.744 757.133,627.219 757.433,626.719C758.533,624.753 760.066,623.236 762.033,622.169C763.999,621.103 766.049,620.569 768.183,620.569C768.549,620.569 768.908,620.586 769.258,620.619C769.608,620.653 769.966,620.703 770.333,620.769C771.166,620.903 771.983,621.111 772.783,621.394C773.583,621.678 774.333,622.053 775.033,622.519C776.566,623.453 777.799,624.719 778.733,626.319C779.666,627.919 780.216,629.586 780.383,631.319C780.383,631.519 780.391,631.711 780.408,631.894C780.424,632.078 780.433,632.253 780.433,632.419C780.433,632.653 780.424,632.894 780.408,633.144C780.391,633.394 780.366,633.636 780.333,633.869C780.266,634.369 780.166,634.861 780.033,635.344C779.899,635.828 779.733,636.303 779.533,636.769ZM768.183,627.119C766.816,627.119 765.724,627.603 764.908,628.569C764.091,629.536 763.683,630.619 763.683,631.819C763.683,633.086 764.141,634.203 765.058,635.169C765.974,636.136 767.016,636.619 768.183,636.619C769.649,636.619 770.749,636.128 771.483,635.144C772.216,634.161 772.583,633.086 772.583,631.919L772.583,631.619C772.516,630.519 772.124,629.494 771.408,628.544C770.691,627.594 769.616,627.119 768.183,627.119Z" style="fill:white;fill-rule:nonzero;stroke:white;stroke-width:4.46px;"/>
        <path d="M785.083,652.919L785.083,621.319L792.183,621.319L792.183,624.969C793.149,623.603 794.308,622.528 795.658,621.744C797.008,620.961 798.449,620.569 799.983,620.569C800.316,620.569 800.666,620.594 801.033,620.644C801.399,620.694 801.766,620.753 802.133,620.819C802.366,620.886 802.599,620.953 802.833,621.019C803.066,621.086 803.283,621.153 803.483,621.219C805.583,622.053 807.141,623.494 808.158,625.544C809.174,627.594 809.683,629.753 809.683,632.019L809.683,632.569C809.583,635.436 808.683,638.053 806.983,640.419C805.283,642.786 802.899,643.969 799.833,643.969L799.583,644.019C797.816,643.986 796.383,643.611 795.283,642.894C794.183,642.178 793.183,641.119 792.283,639.719C792.316,640.053 792.341,640.378 792.358,640.694C792.374,641.011 792.399,641.319 792.433,641.619L792.433,652.919L785.083,652.919ZM796.983,637.769C798.316,637.769 799.499,637.194 800.533,636.044C801.566,634.894 802.083,633.603 802.083,632.169C802.083,630.736 801.624,629.461 800.708,628.344C799.791,627.228 798.549,626.669 796.983,626.669C795.349,626.669 794.116,627.244 793.283,628.394C792.449,629.544 792.033,630.803 792.033,632.169L792.033,632.469C792.099,633.769 792.549,634.978 793.383,636.094C794.216,637.211 795.416,637.769 796.983,637.769Z" style="fill:white;fill-rule:nonzero;stroke:white;stroke-width:4.46px;"/>
    </g>
    <g transform="matrix(5.33493,0,0,5.33493,-3035.56,-2599.8)">
        <path d="M704.183,643.269L704.183,609.569L711.833,609.569L711.833,630.869L719.733,621.319L729.383,621.319L719.533,631.819L730.283,643.269L720.083,643.269L711.833,633.469L711.833,643.269L704.183,643.269Z" style="fill-rule:nonzero;"/>
        <path d="M734.333,643.269L734.333,621.319L742.133,621.319L742.133,643.269L734.333,643.269ZM733.883,614.519C733.883,613.386 734.324,612.361 735.208,611.444C736.091,610.528 737.049,610.036 738.083,609.969L738.233,609.969C739.333,609.969 740.316,610.436 741.183,611.369C742.049,612.303 742.483,613.353 742.483,614.519C742.483,615.786 742.066,616.769 741.233,617.469C740.399,618.169 739.466,618.553 738.433,618.619L737.933,618.619C736.899,618.553 735.966,618.169 735.133,617.469C734.299,616.769 733.883,615.786 733.883,614.519Z" style="fill-rule:nonzero;"/>
        <path d="M776.033,643.269L776.033,630.769C775.999,629.636 775.791,628.603 775.408,627.669C775.024,626.736 774.199,626.269 772.933,626.269L772.433,626.269C771.199,626.403 770.349,626.944 769.883,627.894C769.416,628.844 769.133,629.869 769.033,630.969C768.999,631.203 768.983,631.444 768.983,631.694L768.983,632.819C768.983,632.953 768.999,633.069 769.033,633.169L769.033,643.269L761.483,643.269L761.483,630.769C761.449,629.636 761.266,628.603 760.933,627.669C760.599,626.736 759.766,626.269 758.433,626.269L757.933,626.269C756.599,626.403 755.699,626.961 755.233,627.944C754.766,628.928 754.499,629.986 754.433,631.119C754.399,631.386 754.383,631.653 754.383,631.919L754.383,632.994C754.383,633.111 754.399,633.219 754.433,633.319L754.433,643.269L746.983,643.269L746.983,621.319L754.633,621.319L754.633,625.119C755.499,623.686 756.499,622.569 757.633,621.769C758.766,620.969 760.216,620.569 761.983,620.569L762.233,620.569C763.799,620.569 765.124,620.903 766.208,621.569C767.291,622.236 768.149,623.286 768.783,624.719C769.683,623.453 770.791,622.444 772.108,621.694C773.424,620.944 774.833,620.569 776.333,620.569C776.633,620.569 776.933,620.586 777.233,620.619C777.533,620.653 777.849,620.686 778.183,620.719C778.416,620.786 778.649,620.853 778.883,620.919C779.116,620.986 779.349,621.069 779.583,621.169C781.649,622.036 782.858,623.353 783.208,625.119C783.558,626.886 783.733,628.753 783.733,630.719L783.733,643.269L776.033,643.269Z" style="fill-rule:nonzero;"/>
        <path d="M789.083,609.569L796.433,609.569L796.433,620.969C796.433,621.669 796.424,622.344 796.408,622.994C796.391,623.644 796.349,624.303 796.283,624.969C797.216,623.503 798.233,622.394 799.333,621.644C800.433,620.894 801.899,620.519 803.733,620.519C806.799,620.586 809.174,621.628 810.858,623.644C812.541,625.661 813.466,628.103 813.633,630.969L813.633,632.969C813.566,635.503 812.899,637.844 811.633,639.994C810.366,642.144 808.383,643.403 805.683,643.769C805.316,643.836 804.958,643.886 804.608,643.919C804.258,643.953 803.916,643.969 803.583,643.969C802.049,643.969 800.674,643.594 799.458,642.844C798.241,642.094 797.149,641.053 796.183,639.719L796.183,643.269L789.083,643.269L789.083,609.569ZM800.983,637.269C802.449,637.269 803.666,636.736 804.633,635.669C805.599,634.603 806.083,633.386 806.083,632.019L806.083,631.719C806.016,630.486 805.558,629.344 804.708,628.294C803.858,627.244 802.616,626.719 800.983,626.719C799.416,626.719 798.216,627.244 797.383,628.294C796.549,629.344 796.099,630.486 796.033,631.719L796.033,632.169C796.066,633.436 796.499,634.603 797.333,635.669C798.166,636.736 799.383,637.269 800.983,637.269Z" style="fill-rule:nonzero;"/>
        <path d="M842.083,621.319L842.083,643.169L834.933,643.169L834.933,639.719C833.899,641.119 832.766,642.178 831.533,642.894C830.299,643.611 828.866,643.969 827.233,643.969C826.966,643.969 826.674,643.969 826.358,643.969C826.041,643.969 825.716,643.936 825.383,643.869C822.883,643.503 821.008,642.344 819.758,640.394C818.508,638.444 817.766,636.319 817.533,634.019C817.499,633.719 817.474,633.428 817.458,633.144C817.441,632.861 817.433,632.586 817.433,632.319L817.433,631.994C817.433,631.878 817.449,631.753 817.483,631.619C817.483,631.419 817.499,631.203 817.533,630.969C817.566,630.736 817.583,630.503 817.583,630.269C817.616,630.169 817.641,630.069 817.658,629.969C817.674,629.869 817.683,629.769 817.683,629.669C818.049,627.003 819.108,624.819 820.858,623.119C822.608,621.419 824.849,620.569 827.583,620.569C829.283,620.569 830.708,620.944 831.858,621.694C833.008,622.444 834.033,623.503 834.933,624.869L834.933,621.319L842.083,621.319ZM825.133,632.019C825.199,633.353 825.641,634.561 826.458,635.644C827.274,636.728 828.499,637.269 830.133,637.269C831.766,637.269 832.999,636.728 833.833,635.644C834.666,634.561 835.083,633.369 835.083,632.069L835.083,631.669C834.983,630.436 834.516,629.303 833.683,628.269C832.849,627.236 831.666,626.719 830.133,626.719C828.533,626.719 827.316,627.244 826.483,628.294C825.649,629.344 825.199,630.486 825.133,631.719L825.133,632.019Z" style="fill-rule:nonzero;"/>
        <path d="M847.583,652.919L847.583,621.319L854.683,621.319L854.683,624.969C855.649,623.603 856.808,622.528 858.158,621.744C859.508,620.961 860.949,620.569 862.483,620.569C862.816,620.569 863.166,620.594 863.533,620.644C863.899,620.694 864.266,620.753 864.633,620.819C864.866,620.886 865.099,620.953 865.333,621.019C865.566,621.086 865.783,621.153 865.983,621.219C868.083,622.053 869.641,623.494 870.658,625.544C871.674,627.594 872.183,629.753 872.183,632.019L872.183,632.569C872.083,635.436 871.183,638.053 869.483,640.419C867.783,642.786 865.399,643.969 862.333,643.969L862.083,644.019C860.316,643.986 858.883,643.611 857.783,642.894C856.683,642.178 855.683,641.119 854.783,639.719C854.816,640.053 854.841,640.378 854.858,640.694C854.874,641.011 854.899,641.319 854.933,641.619L854.933,652.919L847.583,652.919ZM859.483,637.769C860.816,637.769 861.999,637.194 863.033,636.044C864.066,634.894 864.583,633.603 864.583,632.169C864.583,630.736 864.124,629.461 863.208,628.344C862.291,627.228 861.049,626.669 859.483,626.669C857.849,626.669 856.616,627.244 855.783,628.394C854.949,629.544 854.533,630.803 854.533,632.169L854.533,632.469C854.599,633.769 855.049,634.978 855.883,636.094C856.716,637.211 857.916,637.769 859.483,637.769Z" style="fill-rule:nonzero;"/>
    </g>
    <g transform="matrix(5.33493,0,0,5.33493,-3030.66,-2344.84)">
        <path d="M703.533,641.419L705.183,635.469C706.149,636.303 707.183,636.961 708.283,637.444C709.383,637.928 710.566,638.269 711.833,638.469C711.866,638.469 711.908,638.478 711.958,638.494C712.008,638.511 712.083,638.519 712.183,638.519C712.249,638.519 712.316,638.528 712.383,638.544C712.449,638.561 712.533,638.569 712.633,638.569C712.799,638.569 712.983,638.561 713.183,638.544C713.383,638.528 713.566,638.503 713.733,638.469C714.333,638.369 714.866,638.186 715.333,637.919C715.799,637.653 716.033,637.303 716.033,636.869C716.033,636.769 716.016,636.653 715.983,636.519C715.949,636.386 715.916,636.236 715.883,636.069C715.849,636.003 715.816,635.944 715.783,635.894C715.749,635.844 715.716,635.786 715.683,635.719C715.449,635.353 715.058,635.078 714.508,634.894C713.958,634.711 713.383,634.553 712.783,634.419C712.583,634.386 712.374,634.344 712.158,634.294C711.941,634.244 711.716,634.203 711.483,634.169C711.316,634.136 711.149,634.103 710.983,634.069C710.816,634.036 710.666,634.003 710.533,633.969C709.266,633.536 708.074,632.944 706.958,632.194C705.841,631.444 705.133,630.386 704.833,629.019C704.833,628.953 704.824,628.886 704.808,628.819C704.791,628.753 704.783,628.669 704.783,628.569C704.783,628.536 704.774,628.503 704.758,628.469C704.741,628.436 704.733,628.403 704.733,628.369C704.733,628.269 704.724,628.161 704.708,628.044C704.691,627.928 704.683,627.819 704.683,627.719L704.683,627.419C704.683,627.319 704.699,627.219 704.733,627.119C704.799,626.186 705.066,625.286 705.533,624.419C705.999,623.553 706.599,622.836 707.333,622.269C708.033,621.769 708.816,621.386 709.683,621.119C710.549,620.853 711.433,620.686 712.333,620.619C712.466,620.586 712.616,620.569 712.783,620.569L713.283,620.569C713.616,620.569 713.958,620.578 714.308,620.594C714.658,620.611 715.016,620.653 715.383,620.719C716.616,620.853 717.841,621.103 719.058,621.469C720.274,621.836 721.366,622.219 722.333,622.619L720.733,627.969C719.799,627.336 718.816,626.811 717.783,626.394C716.749,625.978 715.616,625.769 714.383,625.769L713.958,625.769C713.808,625.769 713.649,625.786 713.483,625.819C713.083,625.886 712.716,626.011 712.383,626.194C712.049,626.378 711.833,626.686 711.733,627.119L711.633,627.369L711.633,627.519C711.666,627.819 711.791,628.086 712.008,628.319C712.224,628.553 712.483,628.703 712.783,628.769C713.183,628.903 713.574,629.036 713.958,629.169C714.341,629.303 714.733,629.419 715.133,629.519C715.233,629.553 715.341,629.586 715.458,629.619C715.574,629.653 715.683,629.686 715.783,629.719C716.216,629.819 716.641,629.928 717.058,630.044C717.474,630.161 717.883,630.303 718.283,630.469C719.716,631.003 720.816,631.786 721.583,632.819C722.349,633.853 722.799,634.936 722.933,636.069C722.966,636.203 722.983,636.328 722.983,636.444L722.983,637.144C722.983,637.261 722.966,637.386 722.933,637.519C722.833,638.353 722.558,639.178 722.108,639.994C721.658,640.811 721.033,641.519 720.233,642.119C719.366,642.786 718.391,643.261 717.308,643.544C716.224,643.828 715.116,643.986 713.983,644.019L713.433,644.019C713.133,644.019 712.841,644.011 712.558,643.994C712.274,643.978 711.983,643.953 711.683,643.919C710.216,643.753 708.774,643.444 707.358,642.994C705.941,642.544 704.666,642.019 703.533,641.419Z" style="fill-rule:nonzero;"/>
        <path d="M727.433,643.269L727.433,609.569L735.083,609.569L735.083,621.319C735.083,621.853 735.058,622.378 735.008,622.894C734.958,623.411 734.899,623.936 734.833,624.469C734.799,624.636 734.774,624.786 734.758,624.919C734.741,625.053 734.733,625.186 734.733,625.319C735.766,623.753 736.916,622.561 738.183,621.744C739.449,620.928 740.983,620.519 742.783,620.519L744.133,620.519C745.266,620.653 746.349,620.996 747.383,621.547C748.416,622.098 749.249,622.874 749.883,623.876C750.349,624.712 750.649,625.597 750.783,626.532C750.916,627.468 750.999,628.42 751.033,629.389L751.033,643.269L743.233,643.269L743.233,630.719C743.233,630.453 743.216,630.169 743.183,629.869C743.116,629.269 742.966,628.686 742.733,628.119C742.499,627.553 742.099,627.119 741.533,626.819C741.399,626.753 741.241,626.694 741.058,626.644C740.874,626.594 740.683,626.569 740.483,626.569C740.349,626.536 740.216,626.519 740.083,626.519L739.283,626.519C739.116,626.519 738.941,626.536 738.758,626.569C738.574,626.603 738.399,626.636 738.233,626.669C737.033,627.069 736.233,627.769 735.833,628.769C735.433,629.769 735.199,630.819 735.133,631.919C735.099,632.286 735.083,632.644 735.083,632.994L735.083,643.269L727.433,643.269Z" style="fill-rule:nonzero;"/>
        <path d="M779.533,636.769C778.599,638.936 777.124,640.644 775.108,641.894C773.091,643.144 770.966,643.836 768.733,643.969L768.033,643.969C767.699,643.969 767.358,643.953 767.008,643.919C766.658,643.886 766.316,643.836 765.983,643.769C765.349,643.669 764.733,643.536 764.133,643.369C763.533,643.203 762.966,642.986 762.433,642.719C760.466,641.686 758.899,640.211 757.733,638.294C756.566,636.378 755.983,634.369 755.983,632.269C755.983,631.903 755.999,631.519 756.033,631.119C756.066,630.719 756.133,630.319 756.233,629.919C756.333,629.386 756.483,628.844 756.683,628.294C756.883,627.744 757.133,627.219 757.433,626.719C758.533,624.753 760.066,623.236 762.033,622.169C763.999,621.103 766.049,620.569 768.183,620.569C768.549,620.569 768.908,620.586 769.258,620.619C769.608,620.653 769.966,620.703 770.333,620.769C771.166,620.903 771.983,621.111 772.783,621.394C773.583,621.678 774.333,622.053 775.033,622.519C776.566,623.453 777.799,624.719 778.733,626.319C779.666,627.919 780.216,629.586 780.383,631.319C780.383,631.519 780.391,631.711 780.408,631.894C780.424,632.078 780.433,632.253 780.433,632.419C780.433,632.653 780.424,632.894 780.408,633.144C780.391,633.394 780.366,633.636 780.333,633.869C780.266,634.369 780.166,634.861 780.033,635.344C779.899,635.828 779.733,636.303 779.533,636.769ZM768.183,627.119C766.816,627.119 765.724,627.603 764.908,628.569C764.091,629.536 763.683,630.619 763.683,631.819C763.683,633.086 764.141,634.203 765.058,635.169C765.974,636.136 767.016,636.619 768.183,636.619C769.649,636.619 770.749,636.128 771.483,635.144C772.216,634.161 772.583,633.086 772.583,631.919L772.583,631.619C772.516,630.519 772.124,629.494 771.408,628.544C770.691,627.594 769.616,627.119 768.183,627.119Z" style="fill-rule:nonzero;"/>
        <path d="M785.083,652.919L785.083,621.319L792.183,621.319L792.183,624.969C793.149,623.603 794.308,622.528 795.658,621.744C797.008,620.961 798.449,620.569 799.983,620.569C800.316,620.569 800.666,620.594 801.033,620.644C801.399,620.694 801.766,620.753 802.133,620.819C802.366,620.886 802.599,620.953 802.833,621.019C803.066,621.086 803.283,621.153 803.483,621.219C805.583,622.053 807.141,623.494 808.158,625.544C809.174,627.594 809.683,629.753 809.683,632.019L809.683,632.569C809.583,635.436 808.683,638.053 806.983,640.419C805.283,642.786 802.899,643.969 799.833,643.969L799.583,644.019C797.816,643.986 796.383,643.611 795.283,642.894C794.183,642.178 793.183,641.119 792.283,639.719C792.316,640.053 792.341,640.378 792.358,640.694C792.374,641.011 792.399,641.319 792.433,641.619L792.433,652.919L785.083,652.919ZM796.983,637.769C798.316,637.769 799.499,637.194 800.533,636.044C801.566,634.894 802.083,633.603 802.083,632.169C802.083,630.736 801.624,629.461 800.708,628.344C799.791,627.228 798.549,626.669 796.983,626.669C795.349,626.669 794.116,627.244 793.283,628.394C792.449,629.544 792.033,630.803 792.033,632.169L792.033,632.469C792.099,633.769 792.549,634.978 793.383,636.094C794.216,637.211 795.416,637.769 796.983,637.769Z" style="fill-rule:nonzero;"/>
    </g>
    <g transform="matrix(1.38961,0,0,1.38961,-280.556,-178.992)">
        <g transform="matrix(2.02841,0,-5.56254e-18,1.00432,-396.397,109.897)">
            <path d="M531.003,525.818L314.388,379.987L314.388,949.832L531.003,770.912L531.003,525.818Z" style="stroke:black;stroke-width:15.34px;stroke-linecap:round;stroke-miterlimit:1.5;"/>
        </g>
        <g transform="matrix(-1.89773,0,5.20417e-18,1.00432,1251.01,109.897)">
            <path d="M531.003,525.818L314.388,379.987L314.388,949.832L531.003,770.912L531.003,525.818Z" style="stroke:black;stroke-width:16.17px;stroke-linecap:round;stroke-miterlimit:1.5;"/>
        </g>
    </g>
    <g transform="matrix(1.38961,0,0,1.38961,-280.556,-178.992)">
        <g transform="matrix(2.02841,0,-5.56254e-18,1.00432,-396.397,109.897)">
            <path d="M531.003,525.818L314.388,379.987L314.388,949.832L531.003,770.912L531.003,525.818Z" style="fill:rgb(85,176,237);stroke:white;stroke-width:8.13px;stroke-linecap:round;stroke-miterlimit:1.5;"/>
        </g>
        <g transform="matrix(-1.89773,0,5.20417e-18,1.00432,1251.01,109.897)">
            <path d="M531.003,525.818L314.388,379.987L314.388,949.832L531.003,770.912L531.003,525.818Z" style="stroke:white;stroke-width:8.58px;stroke-linecap:round;stroke-miterlimit:1.5;"/>
        </g>
        <g transform="matrix(0.784698,0,0,0.784698,-56.9809,259.857)">
            <g transform="matrix(-0.646296,-1.84479e-16,1.84479e-16,-0.646296,1113.85,1081.74)">
                <path d="M618.895,526.489C584.482,493.333 563.063,446.787 563.063,395.278C563.063,294.713 644.709,213.067 745.274,213.067C845.839,213.067 927.485,294.713 927.485,395.278C927.485,446.787 906.066,493.333 871.653,526.489L934.985,526.489L934.985,652.028L517.649,652.028L517.649,526.489L618.895,526.489ZM745.274,337.105C777.381,337.105 803.447,363.171 803.447,395.278C803.447,427.384 777.381,453.451 745.274,453.451C713.167,453.451 687.101,427.384 687.101,395.278C687.101,363.171 713.167,337.105 745.274,337.105Z" style="fill:white;stroke:white;stroke-width:39.79px;stroke-linecap:round;stroke-miterlimit:1.5;"/>
            </g>
            <g transform="matrix(-0.00571732,0.605719,-0.605719,-0.00571732,1188.2,69.3696)">
                <path d="M517.649,980.293L699.692,978.175L566.75,845.483L564.693,668.653L735.124,849.206L928.873,653.051L930.98,834.143L784.201,977.192L932.625,975.465L934.129,1104.71L517.649,1109.56L517.649,980.293Z" style="fill:white;fill-rule:nonzero;stroke:white;stroke-width:42.46px;"/>
            </g>
        </g>
        <g transform="matrix(0.784698,0,0,0.784698,-56.9809,259.857)">
            <g transform="matrix(-0.646296,-1.84479e-16,1.84479e-16,-0.646296,1113.85,1081.74)">
                <path d="M618.895,526.489C584.482,493.333 563.063,446.787 563.063,395.278C563.063,294.713 644.709,213.067 745.274,213.067C845.839,213.067 927.485,294.713 927.485,395.278C927.485,446.787 906.066,493.333 871.653,526.489L934.985,526.489L934.985,652.028L517.649,652.028L517.649,526.489L618.895,526.489ZM745.274,337.105C777.381,337.105 803.447,363.171 803.447,395.278C803.447,427.384 777.381,453.451 745.274,453.451C713.167,453.451 687.101,427.384 687.101,395.278C687.101,363.171 713.167,337.105 745.274,337.105Z" style="fill:rgb(85,176,237);"/>
            </g>
            <g transform="matrix(-0.00571732,0.605719,-0.605719,-0.00571732,1188.2,69.3696)">
                <path d="M517.649,980.293L699.692,978.175L566.75,845.483L564.693,668.653L735.124,849.206L928.873,653.051L930.98,834.143L784.201,977.192L932.625,975.465L934.129,1104.71L517.649,1109.56L517.649,980.293Z" style="fill:rgb(255,109,109);fill-rule:nonzero;"/>
            </g>
        </g>
    </g>
</svg>
