<?xml version="1.0" encoding="UTF-8" standalone="no"?>
<!DOCTYPE svg PUBLIC "-//W3C//DTD SVG 1.1//EN" "http://www.w3.org/Graphics/SVG/1.1/DTD/svg11.dtd">
<svg width="100%" height="100%" viewBox="0 0 300 300" version="1.1" xmlns="http://www.w3.org/2000/svg" xmlns:xlink="http://www.w3.org/1999/xlink" xml:space="preserve" xmlns:serif="http://www.serif.com/" style="fill-rule:evenodd;clip-rule:evenodd;stroke-linejoin:round;stroke-miterlimit:2;">
    <path d="M195.314,202.428L185.893,202.428L185.893,214.428C185.893,216.549 185.05,218.584 183.55,220.084C182.05,221.585 180.015,222.428 177.893,222.428L109.44,222.428L139.298,283.053C140.632,285.762 143.378,287.489 146.397,287.519C149.417,287.548 152.196,285.874 153.582,283.191L195.314,202.428ZM91.236,185.465L97.015,197.199L115.385,197.199L115.385,185.465L91.236,185.465ZM208.35,177.199L214.414,165.465L185.893,165.465L185.893,177.199L208.35,177.199ZM73.033,148.503L78.812,160.237L115.385,160.237L115.385,148.503L73.033,148.503ZM227.45,140.237L233.513,128.503L185.893,128.503L185.893,140.237L227.45,140.237ZM54.829,111.541L60.608,123.275L115.385,123.275L115.385,111.541L54.829,111.541ZM246.549,103.275L252.612,91.541L185.893,91.541L185.893,103.275L246.549,103.275ZM36.626,74.579L42.404,86.313L115.385,86.313L115.385,74.579L36.626,74.579ZM265.648,66.313L271.711,54.579L185.893,54.579L185.893,66.313L265.648,66.313ZM24.201,49.351L115.385,49.351L115.385,37.351C115.385,32.932 118.966,29.351 123.385,29.351L284.747,29.351L293.773,11.884C295.054,9.404 294.951,6.435 293.499,4.051C292.047,1.666 289.457,0.211 286.666,0.211L12.858,0.211C10.093,0.211 7.525,1.638 6.065,3.985C4.605,6.332 4.459,9.266 5.681,11.746L24.201,49.351Z" style="fill:white;"/>
</svg>
