<?xml version="1.0" encoding="UTF-8" standalone="no"?>
<!DOCTYPE svg PUBLIC "-//W3C//DTD SVG 1.1//EN" "http://www.w3.org/Graphics/SVG/1.1/DTD/svg11.dtd">
<svg width="100%" height="100%" viewBox="0 0 368 378" version="1.1" xmlns="http://www.w3.org/2000/svg" xmlns:xlink="http://www.w3.org/1999/xlink" xml:space="preserve" xmlns:serif="http://www.serif.com/" style="fill-rule:evenodd;clip-rule:evenodd;stroke-linejoin:round;stroke-miterlimit:2;">
    <g transform="matrix(1.36047,0,0,1.22701,-278.989,60.106)">
        <g transform="matrix(1.17628,0,0,1.17628,5.41528,-25.3105)">
            <path d="M201.007,141.76L208.754,141.76L208.754,135.237L185.769,135.237L185.769,141.76L193.516,141.76L193.516,173.664L201.007,173.664L201.007,141.76Z" style="fill:white;fill-rule:nonzero;stroke:white;stroke-width:2.28px;"/>
        </g>
        <g transform="matrix(0.772869,0,0,0.772869,85.7446,44.748)">
            <path d="M218.998,150.373L218.998,135.237L211.506,135.237L211.506,173.664L218.998,173.664L218.998,156.489L232.86,156.489L232.86,173.664L240.352,173.664L240.352,135.237L232.86,135.237L232.86,150.373L218.998,150.373Z" style="fill:white;fill-rule:nonzero;stroke:white;stroke-width:3.47px;"/>
        </g>
        <g transform="matrix(0.772869,0,0,0.772869,87.9918,44.748)">
            <rect x="245.856" y="135.237" width="7.492" height="38.427" style="fill:white;stroke:white;stroke-width:3.47px;"/>
        </g>
        <g transform="matrix(0.772869,0,0,0.772869,90.239,43.9602)">
            <path d="M280.409,138.499C279.288,137.241 277.7,136.214 275.644,135.415C273.589,134.617 271.677,134.218 269.911,134.218C268.314,134.218 266.836,134.515 265.477,135.109C264.118,135.704 262.929,136.528 261.909,137.581C260.89,138.634 260.1,139.866 259.54,141.276C258.979,142.686 258.699,144.173 258.699,145.735C258.699,147.196 258.902,148.47 259.31,149.558C259.718,150.645 260.304,151.588 261.068,152.386C261.833,153.185 262.716,153.89 263.719,154.501C264.721,155.113 265.901,155.69 267.261,156.234C267.6,156.37 267.804,156.455 267.872,156.489C268.823,156.863 269.613,157.194 270.242,157.483C270.87,157.771 271.474,158.137 272.051,158.578C272.629,159.02 273.087,159.564 273.427,160.209C273.767,160.855 273.937,161.619 273.937,162.503C273.937,164.031 273.478,165.34 272.561,166.427C271.643,167.514 270.454,168.058 268.993,168.058C267.464,168.058 266.063,167.514 264.789,166.427C263.515,165.34 262.606,164.014 262.062,162.452L257.221,167.191C258.614,169.536 260.295,171.37 262.266,172.695C264.237,174.02 266.496,174.683 269.044,174.683C272.918,174.683 275.992,173.468 278.269,171.039C280.545,168.61 281.683,165.441 281.683,161.534C281.683,159.767 281.412,158.239 280.868,156.947C280.324,155.656 279.594,154.586 278.676,153.737C277.759,152.887 276.808,152.199 275.822,151.673C274.837,151.146 273.614,150.577 272.153,149.965C270.182,149.116 268.738,148.352 267.821,147.672C266.904,146.993 266.445,146.058 266.445,144.869C266.445,143.646 266.921,142.618 267.872,141.786C268.823,140.953 269.911,140.537 271.134,140.537C272.357,140.537 273.436,140.809 274.37,141.353C275.304,141.896 276.145,142.678 276.893,143.697L280.409,138.499Z" style="fill:white;fill-rule:nonzero;stroke:white;stroke-width:3.47px;"/>
        </g>
        <g transform="matrix(1.1236,0,0,1.1236,-22.9795,-17.0207)">
            <path d="M304.719,135.237L296.871,135.237L309.102,174.428L314.606,174.428L321.843,149.303L321.945,149.303L329.589,174.428L335.093,174.428L348.089,135.237L340.241,135.237L332.698,161.432L332.596,161.432L324.646,134.727L320.212,134.727L312.567,161.432L312.465,161.432L304.719,135.237Z" style="fill:white;fill-rule:nonzero;stroke:white;stroke-width:2.39px;"/>
        </g>
        <g transform="matrix(0.783192,0,0,0.783192,95.9205,42.9553)">
            <path d="M370.004,141.76L370.004,135.237L350.128,135.237L350.128,173.664L370.004,173.664L370.004,167.14L357.619,167.14L357.619,156.744L369.545,156.744L369.545,150.22L357.619,150.22L357.619,141.76L370.004,141.76Z" style="fill:white;fill-rule:nonzero;stroke:white;stroke-width:3.42px;"/>
        </g>
        <g transform="matrix(0.783192,0,0,0.783192,98.1677,42.9553)">
            <path d="M394.874,141.76L394.874,135.237L374.998,135.237L374.998,173.664L394.874,173.664L394.874,167.14L382.49,167.14L382.49,156.744L394.415,156.744L394.415,150.22L382.49,150.22L382.49,141.76L394.874,141.76Z" style="fill:white;fill-rule:nonzero;stroke:white;stroke-width:3.42px;"/>
        </g>
        <g transform="matrix(0.783192,0,0,0.783192,100.415,42.9553)">
            <path d="M407.462,151.443L407.36,151.443L407.36,135.237L399.869,135.237L399.869,173.664L407.36,173.664L407.36,156.387L407.462,156.387L419.744,173.664L429.377,173.664L413.986,152.972L428.561,135.237L419.337,135.237L407.462,151.443Z" style="fill:white;fill-rule:nonzero;stroke:white;stroke-width:3.42px;"/>
        </g>
        <g transform="matrix(1.18779,0,0,1.18779,-71.5066,-32.5535)">
            <path d="M340.75,205.363C340.75,202.509 340.3,199.851 339.4,197.387C338.5,194.924 337.208,192.784 335.527,190.966C333.845,189.148 331.832,187.73 329.487,186.71C327.143,185.691 324.561,185.181 321.741,185.181C318.921,185.181 316.339,185.691 313.994,186.71C311.65,187.73 309.637,189.157 307.955,190.991C306.273,192.826 304.982,194.967 304.082,197.413C303.182,199.859 302.731,202.509 302.731,205.363C302.731,208.183 303.173,210.825 304.056,213.288C304.94,215.751 306.214,217.909 307.879,219.76C309.544,221.612 311.557,223.056 313.918,224.092C316.279,225.129 318.887,225.647 321.741,225.647C324.595,225.647 327.203,225.129 329.564,224.092C331.925,223.056 333.938,221.612 335.603,219.76C337.268,217.909 338.542,215.751 339.425,213.288C340.309,210.825 340.75,208.183 340.75,205.363ZM333.004,205.057C333.004,206.62 332.8,208.175 332.392,209.721C331.985,211.266 331.331,212.685 330.43,213.976C329.53,215.267 328.349,216.303 326.888,217.085C325.427,217.866 323.712,218.257 321.741,218.257C319.77,218.257 318.055,217.866 316.594,217.085C315.133,216.303 313.952,215.267 313.052,213.976C312.151,212.685 311.497,211.266 311.089,209.721C310.682,208.175 310.478,206.62 310.478,205.057C310.478,203.494 310.733,201.966 311.242,200.471C311.752,198.976 312.499,197.634 313.485,196.444C314.47,195.255 315.668,194.312 317.078,193.616C318.488,192.919 320.042,192.571 321.741,192.571C323.44,192.571 324.994,192.919 326.404,193.616C327.814,194.312 329.012,195.255 329.997,196.444C330.982,197.634 331.73,198.976 332.239,200.471C332.749,201.966 333.004,203.494 333.004,205.057Z" style="fill:white;fill-rule:nonzero;stroke:white;stroke-width:2.26px;"/>
        </g>
        <g transform="matrix(1.18779,0,0,1.18779,-71.5066,-32.5535)">
            <path d="M344.42,224.628L351.912,224.628L351.912,198.534L352.013,198.534L372.246,225.392L377.648,225.392L377.648,186.201L370.157,186.201L370.157,212.039L370.055,212.039L349.822,185.181L344.42,185.181L344.42,224.628Z" style="fill:white;fill-rule:nonzero;stroke:white;stroke-width:2.26px;"/>
        </g>
        <g transform="matrix(1.18779,0,0,1.18779,-71.5066,-32.5535)">
            <path d="M390.593,186.201L383.101,186.201L383.101,224.628L401.194,224.628L401.194,218.104L390.593,218.104L390.593,186.201Z" style="fill:white;fill-rule:nonzero;stroke:white;stroke-width:2.26px;"/>
        </g>
        <g transform="matrix(1.18779,0,0,1.18779,-71.5066,-32.5535)">
            <path d="M409.908,206.994L409.908,224.628L417.4,224.628L417.4,206.994L429.53,186.201L420.764,186.201L413.425,199.553L406.698,186.201L397.983,186.201L409.908,206.994Z" style="fill:white;fill-rule:nonzero;stroke:white;stroke-width:2.26px;"/>
        </g>
    </g>
    <g id="Rocket" transform="matrix(9.85162,8.50053e-31,-1.21436e-31,9.85162,159.033,-953.023)">
        <path d="M14.473,106.854C13.057,107.073 11.856,105.859 12.072,104.43C12.207,103.539 12.928,102.81 13.811,102.674C15.226,102.455 16.428,103.669 16.211,105.099C16.076,105.989 15.355,106.718 14.473,106.854ZM20.867,97.169C21.054,98.219 21.761,104.012 16.26,110.757C15.685,111.463 15.045,112.069 14.381,112.592C14.321,112.639 14.293,112.712 14.308,112.787C14.504,113.776 14.746,115.764 13.843,116.909C11.982,119.271 9.269,119.864 8.403,119.997C8.261,120.019 8.14,119.899 8.154,119.755C8.154,119.755 8.524,116.137 8.6,115.361C8.607,115.288 8.545,115.226 8.472,115.237C8.046,115.295 7.397,115.374 7.218,115.331C6.945,115.267 4.908,113.558 4.8,113.296C4.728,113.123 4.708,112.475 4.703,112.057C4.702,111.99 4.638,111.942 4.574,111.959L0.239,113.114C0.119,113.146 0.002,113.057 0,112.932C-0.007,112.093 0.131,109.243 2.188,106.989C3.196,105.884 5.255,105.848 6.224,105.898C6.3,105.902 6.367,105.863 6.405,105.796C6.86,104.979 7.424,104.178 8.121,103.449C13.893,97.421 19.615,97.021 20.663,97C20.765,96.998 20.85,97.068 20.867,97.169ZM6.717,115.949C7.05,116.028 6.911,116.976 6.288,117.696C5.914,118.128 5.369,118.47 4.784,118.621C3.483,118.957 2.282,118.756 2.282,118.756C2.282,118.756 1.902,117.581 2.031,116.232C2.089,115.624 2.34,115.028 2.705,114.588C3.313,113.855 4.22,113.572 4.348,113.891C4.558,114.417 3.931,114.327 3.678,115.554C3.483,116.503 3.805,116.932 3.799,116.948C3.811,116.942 4.278,117.199 5.177,116.858C6.338,116.418 6.171,115.82 6.717,115.949Z" style="fill:white;"/>
    </g>
    <g transform="matrix(1.05556,0,0,1.05556,-53.4048,-7.2581)">
        <rect x="60.113" y="53.811" width="300.391" height="300.391" style="fill:none;stroke:white;stroke-width:16.14px;stroke-linecap:round;stroke-miterlimit:1.5;"/>
    </g>
</svg>
